# File created by Blade
# Date/Time:  Thu Sep 25 19:43:58 2014
# Frame Rate: 120.000 fps
#------------------------------------------------------
:FULLY-SPECIFIED
:DEGREES
873
root 2.341272 14.729380 -10.430295 22.498282 34.496217 -17.135397
Spine 10.267525 6.285232 -38.257904
Head 17.549231 -13.706965 0.449750
LeftShoulder 6.814669 5.289029 16.804996
LeftArm 32.723313 11.325276 -34.296465
LeftForeArm 22.800584 -0.000000 18.717499
LeftHand -35.984076 -0.000000 99.756277
LeftHandThumb1 -26.253704 0.000000 33.147579
RightShoulder -13.493537 25.881292 -48.210789
RightArm 68.779517 42.638432 42.720464
RightForeArm 27.812990 -0.000000 22.437007
RightHand 3.708320 -0.000000 -5.720862
RightHandThumb1 -24.326973 -0.000000 -32.862282
LeftUpLeg -137.660106 32.067989 -11.100054
LeftLeg 116.056529 -0.000000 -0.000000
LeftFoot -19.656526 -29.194251 -5.484473
LeftToeBase 9.165050 -0.000000 -0.000000
RightUpLeg -0.790256 -26.936887 -38.228964
RightLeg 10.488082 -0.000000 -0.000000
RightFoot 4.762524 -31.866905 -0.734227
RightToeBase 7.887074 -0.000000 -0.000000
874
root 2.331423 14.736937 -10.439592 22.523980 34.542883 -17.151671
Spine 10.340949 6.303227 -38.203342
Head 17.845993 -13.497031 0.675706
LeftShoulder 6.837775 5.334649 16.784258
LeftArm 32.782426 11.270580 -34.210317
LeftForeArm 22.890307 -0.000000 18.859357
LeftHand -36.188084 -0.000000 99.745260
LeftHandThumb1 -26.253704 0.000000 33.147579
RightShoulder -13.484167 25.865413 -48.137323
RightArm 68.866879 42.641023 42.792519
RightForeArm 27.817674 -0.000000 22.448415
RightHand 3.579421 -0.000000 -5.763460
RightHandThumb1 -24.326973 -0.000000 -32.862282
LeftUpLeg -137.708439 32.037023 -11.149213
LeftLeg 115.989352 -0.000000 -0.000000
LeftFoot -19.546568 -29.387113 -5.790967
LeftToeBase 9.342675 -0.000000 -0.000000
RightUpLeg -0.794203 -27.031829 -38.190970
RightLeg 10.447287 -0.000000 -0.000000
RightFoot 4.728340 -31.804152 -0.648207
RightToeBase 7.903816 -0.000000 -0.000000
875
root 2.322353 14.742830 -10.448576 22.540495 34.574293 -17.164808
Spine 10.421242 6.330716 -38.166487
Head 18.130010 -13.317168 0.944144
LeftShoulder 6.847259 5.369587 16.814270
LeftArm 32.848559 11.216498 -34.173511
LeftForeArm 22.864593 -0.000000 18.948778
LeftHand -36.142798 -0.000000 99.701895
LeftHandThumb1 -26.253704 0.000000 33.147579
RightShoulder -13.476882 25.834254 -48.056993
RightArm 68.941405 42.630405 42.832859
RightForeArm 27.840915 -0.000000 22.413467
RightHand 3.680470 0.000000 -5.806772
RightHandThumb1 -24.326973 -0.000000 -32.862282
LeftUpLeg -137.741632 32.016240 -11.188307
LeftLeg 115.924359 -0.000000 -0.000000
LeftFoot -19.455386 -29.537060 -6.147418
LeftToeBase 9.405619 -0.000000 -0.000000
RightUpLeg -0.783032 -27.127098 -38.164572
RightLeg 10.385006 -0.000000 -0.000000
RightFoot 4.704477 -31.720713 -0.611371
RightToeBase 7.887250 -0.000000 -0.000000
876
root 2.313854 14.747754 -10.455868 22.537423 34.592054 -17.185614
Spine 10.519254 6.368014 -38.126917
Head 18.354212 -13.167784 1.186219
LeftShoulder 6.802436 5.405325 16.848363
LeftArm 32.966664 11.170479 -34.127907
LeftForeArm 22.735006 -0.000000 19.007351
LeftHand -35.984786 -0.000000 99.547127
LeftHandThumb1 -26.253704 0.000000 33.147579
RightShoulder -13.506810 25.747161 -48.016205
RightArm 69.043956 42.632647 42.924041
RightForeArm 27.845122 -0.000000 22.376441
RightHand 3.826225 -0.000000 -5.696102
RightHandThumb1 -24.326973 -0.000000 -32.862282
LeftUpLeg -137.755389 32.011448 -11.205393
LeftLeg 115.874001 -0.000000 -0.000000
LeftFoot -19.366085 -29.655761 -6.431126
LeftToeBase 9.355897 -0.000000 -0.000000
RightUpLeg -0.764138 -27.186765 -38.141666
RightLeg 10.318822 -0.000000 -0.000000
RightFoot 4.677650 -31.650714 -0.562601
RightToeBase 7.967601 -0.000000 -0.000000
